<mxfile host="app.diagrams.net" modified="2023-04-01T16:55:36.770Z" agent="5.0 (Windows NT 10.0; Win64; x64) AppleWebKit/537.36 (KHTML, like Gecko) Chrome/111.0.0.0 Safari/537.36 Edg/111.0.1661.54" version="20.6.0" etag="tKLX8HnF_s0KOzm-pykk" type="github">
  <diagram id="kVX9kZnTjnVyCXnUmQ64" name="第 1 页">
    <mxGraphModel dx="791" dy="483" grid="1" gridSize="10" guides="1" tooltips="1" connect="1" arrows="1" fold="1" page="1" pageScale="1" pageWidth="827" pageHeight="1169" math="0" shadow="0">
      <root>
        <mxCell id="0" />
        <mxCell id="1" parent="0" />
        <mxCell id="M-5H7LhJ4mhtn-alyOLr-1" value="用戶登入" style="swimlane;whiteSpace=wrap;html=1;" vertex="1" parent="1">
          <mxGeometry x="180" y="120" width="520" height="560" as="geometry" />
        </mxCell>
        <mxCell id="M-5H7LhJ4mhtn-alyOLr-48" style="edgeStyle=orthogonalEdgeStyle;rounded=0;orthogonalLoop=1;jettySize=auto;html=1;exitX=0.5;exitY=1;exitDx=0;exitDy=0;entryX=0.5;entryY=0;entryDx=0;entryDy=0;endArrow=none;endFill=0;" edge="1" parent="M-5H7LhJ4mhtn-alyOLr-1" source="M-5H7LhJ4mhtn-alyOLr-3" target="M-5H7LhJ4mhtn-alyOLr-4">
          <mxGeometry relative="1" as="geometry" />
        </mxCell>
        <mxCell id="M-5H7LhJ4mhtn-alyOLr-58" style="edgeStyle=orthogonalEdgeStyle;rounded=0;orthogonalLoop=1;jettySize=auto;html=1;exitX=0.5;exitY=1;exitDx=0;exitDy=0;entryX=0.5;entryY=0;entryDx=0;entryDy=0;endArrow=none;endFill=0;" edge="1" parent="M-5H7LhJ4mhtn-alyOLr-1" source="M-5H7LhJ4mhtn-alyOLr-3" target="M-5H7LhJ4mhtn-alyOLr-5">
          <mxGeometry relative="1" as="geometry" />
        </mxCell>
        <mxCell id="M-5H7LhJ4mhtn-alyOLr-3" value="輸入用戶名稱與密碼" style="ellipse;whiteSpace=wrap;html=1;" vertex="1" parent="M-5H7LhJ4mhtn-alyOLr-1">
          <mxGeometry x="197.5" y="40" width="140" height="60" as="geometry" />
        </mxCell>
        <mxCell id="M-5H7LhJ4mhtn-alyOLr-49" style="edgeStyle=orthogonalEdgeStyle;rounded=0;orthogonalLoop=1;jettySize=auto;html=1;exitX=0.5;exitY=1;exitDx=0;exitDy=0;entryX=0.5;entryY=0;entryDx=0;entryDy=0;endArrow=none;endFill=0;" edge="1" parent="M-5H7LhJ4mhtn-alyOLr-1" source="M-5H7LhJ4mhtn-alyOLr-4" target="M-5H7LhJ4mhtn-alyOLr-8">
          <mxGeometry relative="1" as="geometry" />
        </mxCell>
        <mxCell id="M-5H7LhJ4mhtn-alyOLr-4" value="舊用戶" style="ellipse;whiteSpace=wrap;html=1;" vertex="1" parent="M-5H7LhJ4mhtn-alyOLr-1">
          <mxGeometry x="62.5" y="140" width="75" height="60" as="geometry" />
        </mxCell>
        <mxCell id="M-5H7LhJ4mhtn-alyOLr-59" style="edgeStyle=orthogonalEdgeStyle;rounded=0;orthogonalLoop=1;jettySize=auto;html=1;exitX=1;exitY=0.5;exitDx=0;exitDy=0;entryX=0;entryY=0.5;entryDx=0;entryDy=0;endArrow=none;endFill=0;" edge="1" parent="M-5H7LhJ4mhtn-alyOLr-1" source="M-5H7LhJ4mhtn-alyOLr-5" target="M-5H7LhJ4mhtn-alyOLr-6">
          <mxGeometry relative="1" as="geometry" />
        </mxCell>
        <mxCell id="M-5H7LhJ4mhtn-alyOLr-5" value="新用戶" style="ellipse;whiteSpace=wrap;html=1;" vertex="1" parent="M-5H7LhJ4mhtn-alyOLr-1">
          <mxGeometry x="230" y="140" width="75" height="60" as="geometry" />
        </mxCell>
        <mxCell id="M-5H7LhJ4mhtn-alyOLr-65" style="edgeStyle=orthogonalEdgeStyle;rounded=0;orthogonalLoop=1;jettySize=auto;html=1;exitX=0.5;exitY=1;exitDx=0;exitDy=0;entryX=0.5;entryY=0;entryDx=0;entryDy=0;endArrow=none;endFill=0;" edge="1" parent="M-5H7LhJ4mhtn-alyOLr-1" source="M-5H7LhJ4mhtn-alyOLr-6" target="M-5H7LhJ4mhtn-alyOLr-62">
          <mxGeometry relative="1" as="geometry" />
        </mxCell>
        <mxCell id="M-5H7LhJ4mhtn-alyOLr-6" value="申辦帳號" style="ellipse;whiteSpace=wrap;html=1;" vertex="1" parent="M-5H7LhJ4mhtn-alyOLr-1">
          <mxGeometry x="370" y="140" width="75" height="60" as="geometry" />
        </mxCell>
        <mxCell id="M-5H7LhJ4mhtn-alyOLr-64" style="edgeStyle=orthogonalEdgeStyle;rounded=0;orthogonalLoop=1;jettySize=auto;html=1;exitX=1;exitY=0.5;exitDx=0;exitDy=0;entryX=0;entryY=0.5;entryDx=0;entryDy=0;endArrow=none;endFill=0;" edge="1" parent="M-5H7LhJ4mhtn-alyOLr-1" source="M-5H7LhJ4mhtn-alyOLr-7" target="M-5H7LhJ4mhtn-alyOLr-3">
          <mxGeometry relative="1" as="geometry" />
        </mxCell>
        <mxCell id="M-5H7LhJ4mhtn-alyOLr-7" value="訪客模式" style="ellipse;whiteSpace=wrap;html=1;" vertex="1" parent="M-5H7LhJ4mhtn-alyOLr-1">
          <mxGeometry x="62.5" y="40" width="75" height="60" as="geometry" />
        </mxCell>
        <mxCell id="M-5H7LhJ4mhtn-alyOLr-21" style="edgeStyle=orthogonalEdgeStyle;rounded=0;orthogonalLoop=1;jettySize=auto;html=1;exitX=0.5;exitY=1;exitDx=0;exitDy=0;entryX=0.5;entryY=0;entryDx=0;entryDy=0;endArrow=none;endFill=0;" edge="1" parent="M-5H7LhJ4mhtn-alyOLr-1" source="M-5H7LhJ4mhtn-alyOLr-8" target="M-5H7LhJ4mhtn-alyOLr-16">
          <mxGeometry relative="1" as="geometry">
            <Array as="points">
              <mxPoint x="100" y="350" />
              <mxPoint x="76" y="350" />
            </Array>
          </mxGeometry>
        </mxCell>
        <mxCell id="M-5H7LhJ4mhtn-alyOLr-22" style="edgeStyle=orthogonalEdgeStyle;rounded=0;orthogonalLoop=1;jettySize=auto;html=1;exitX=0.5;exitY=1;exitDx=0;exitDy=0;endArrow=none;endFill=0;" edge="1" parent="M-5H7LhJ4mhtn-alyOLr-1" source="M-5H7LhJ4mhtn-alyOLr-8" target="M-5H7LhJ4mhtn-alyOLr-17">
          <mxGeometry relative="1" as="geometry">
            <Array as="points">
              <mxPoint x="100" y="350" />
              <mxPoint x="218" y="350" />
            </Array>
          </mxGeometry>
        </mxCell>
        <mxCell id="M-5H7LhJ4mhtn-alyOLr-23" style="edgeStyle=orthogonalEdgeStyle;rounded=0;orthogonalLoop=1;jettySize=auto;html=1;exitX=1;exitY=0.5;exitDx=0;exitDy=0;entryX=0.5;entryY=0;entryDx=0;entryDy=0;endArrow=none;endFill=0;" edge="1" parent="M-5H7LhJ4mhtn-alyOLr-1" source="M-5H7LhJ4mhtn-alyOLr-8" target="M-5H7LhJ4mhtn-alyOLr-18">
          <mxGeometry relative="1" as="geometry" />
        </mxCell>
        <mxCell id="M-5H7LhJ4mhtn-alyOLr-8" value="查詢用戶資料" style="ellipse;whiteSpace=wrap;html=1;" vertex="1" parent="M-5H7LhJ4mhtn-alyOLr-1">
          <mxGeometry x="42.5" y="250" width="115" height="60" as="geometry" />
        </mxCell>
        <mxCell id="M-5H7LhJ4mhtn-alyOLr-25" style="edgeStyle=orthogonalEdgeStyle;rounded=0;orthogonalLoop=1;jettySize=auto;html=1;exitX=0.5;exitY=1;exitDx=0;exitDy=0;entryX=0.5;entryY=0;entryDx=0;entryDy=0;endArrow=none;endFill=0;" edge="1" parent="M-5H7LhJ4mhtn-alyOLr-1" source="M-5H7LhJ4mhtn-alyOLr-16" target="M-5H7LhJ4mhtn-alyOLr-24">
          <mxGeometry relative="1" as="geometry" />
        </mxCell>
        <mxCell id="M-5H7LhJ4mhtn-alyOLr-16" value="購物車" style="ellipse;whiteSpace=wrap;html=1;" vertex="1" parent="M-5H7LhJ4mhtn-alyOLr-1">
          <mxGeometry x="42.5" y="410" width="67.5" height="60" as="geometry" />
        </mxCell>
        <mxCell id="M-5H7LhJ4mhtn-alyOLr-27" style="edgeStyle=orthogonalEdgeStyle;rounded=0;orthogonalLoop=1;jettySize=auto;html=1;exitX=0.5;exitY=1;exitDx=0;exitDy=0;entryX=1;entryY=0.5;entryDx=0;entryDy=0;endArrow=none;endFill=0;" edge="1" parent="M-5H7LhJ4mhtn-alyOLr-1" source="M-5H7LhJ4mhtn-alyOLr-17" target="M-5H7LhJ4mhtn-alyOLr-24">
          <mxGeometry relative="1" as="geometry" />
        </mxCell>
        <mxCell id="M-5H7LhJ4mhtn-alyOLr-17" value="最近預覽書本紀錄" style="ellipse;whiteSpace=wrap;html=1;" vertex="1" parent="M-5H7LhJ4mhtn-alyOLr-1">
          <mxGeometry x="157.5" y="400" width="120" height="60" as="geometry" />
        </mxCell>
        <mxCell id="M-5H7LhJ4mhtn-alyOLr-54" style="edgeStyle=orthogonalEdgeStyle;rounded=0;orthogonalLoop=1;jettySize=auto;html=1;exitX=0.5;exitY=1;exitDx=0;exitDy=0;entryX=0.5;entryY=0;entryDx=0;entryDy=0;endArrow=none;endFill=0;" edge="1" parent="M-5H7LhJ4mhtn-alyOLr-1" source="M-5H7LhJ4mhtn-alyOLr-18" target="M-5H7LhJ4mhtn-alyOLr-28">
          <mxGeometry relative="1" as="geometry" />
        </mxCell>
        <mxCell id="M-5H7LhJ4mhtn-alyOLr-18" value="最近搜索書本紀錄" style="ellipse;whiteSpace=wrap;html=1;" vertex="1" parent="M-5H7LhJ4mhtn-alyOLr-1">
          <mxGeometry x="270" y="310" width="120" height="60" as="geometry" />
        </mxCell>
        <mxCell id="M-5H7LhJ4mhtn-alyOLr-24" value="提示購買" style="ellipse;whiteSpace=wrap;html=1;" vertex="1" parent="M-5H7LhJ4mhtn-alyOLr-1">
          <mxGeometry x="37.5" y="495" width="77.5" height="50" as="geometry" />
        </mxCell>
        <mxCell id="M-5H7LhJ4mhtn-alyOLr-28" value="推薦相似書本" style="ellipse;whiteSpace=wrap;html=1;" vertex="1" parent="M-5H7LhJ4mhtn-alyOLr-1">
          <mxGeometry x="337.5" y="465" width="120" height="60" as="geometry" />
        </mxCell>
        <mxCell id="M-5H7LhJ4mhtn-alyOLr-62" value="使用指南" style="ellipse;whiteSpace=wrap;html=1;" vertex="1" parent="M-5H7LhJ4mhtn-alyOLr-1">
          <mxGeometry x="410" y="240" width="75" height="60" as="geometry" />
        </mxCell>
        <mxCell id="M-5H7LhJ4mhtn-alyOLr-63" style="edgeStyle=orthogonalEdgeStyle;rounded=0;orthogonalLoop=1;jettySize=auto;html=1;exitX=0.5;exitY=0;exitDx=0;exitDy=0;exitPerimeter=0;endArrow=none;endFill=0;" edge="1" parent="1" source="M-5H7LhJ4mhtn-alyOLr-2" target="M-5H7LhJ4mhtn-alyOLr-7">
          <mxGeometry relative="1" as="geometry" />
        </mxCell>
        <mxCell id="M-5H7LhJ4mhtn-alyOLr-2" value="用戶" style="shape=umlActor;verticalLabelPosition=bottom;verticalAlign=top;html=1;outlineConnect=0;" vertex="1" parent="1">
          <mxGeometry x="90" y="210" width="30" height="60" as="geometry" />
        </mxCell>
      </root>
    </mxGraphModel>
  </diagram>
</mxfile>
